<svg xmlns="http://www.w3.org/2000/svg" xmlns:xlink="http://www.w3.org/1999/xlink" contentStyleType="text/css" data-diagram-type="SEQUENCE" height="412px" preserveAspectRatio="none" style="width:636px;height:412px;background:#FFFFFF;" version="1.1" viewBox="0 0 636 412" width="636px" zoomAndPan="magnify"><defs/><g><line style="stroke:#181818;stroke-width:0.5;stroke-dasharray:5.0,5.0;" x1="23" x2="23" y1="81.2969" y2="331.2266"/><line style="stroke:#181818;stroke-width:0.5;stroke-dasharray:5.0,5.0;" x1="159.7896" x2="159.7896" y1="81.2969" y2="331.2266"/><line style="stroke:#181818;stroke-width:0.5;stroke-dasharray:5.0,5.0;" x1="599.271" x2="599.271" y1="81.2969" y2="331.2266"/><text fill="#000000" font-family="sans-serif" font-size="14" lengthAdjust="spacing" textLength="31.9102" x="5" y="77.9951">User</text><ellipse cx="23.9551" cy="13.5" fill="#E2E2F0" rx="8" ry="8" style="stroke:#181818;stroke-width:0.5;"/><path d="M23.9551,21.5 L23.9551,48.5 M10.9551,29.5 L36.9551,29.5 M23.9551,48.5 L10.9551,63.5 M23.9551,48.5 L36.9551,63.5 " fill="none" style="stroke:#181818;stroke-width:0.5;"/><text fill="#000000" font-family="sans-serif" font-size="14" lengthAdjust="spacing" textLength="31.9102" x="5" y="343.2217">User</text><ellipse cx="23.9551" cy="355.0234" fill="#E2E2F0" rx="8" ry="8" style="stroke:#181818;stroke-width:0.5;"/><path d="M23.9551,363.0234 L23.9551,390.0234 M10.9551,371.0234 L36.9551,371.0234 M23.9551,390.0234 L10.9551,405.0234 M23.9551,390.0234 L36.9551,405.0234 " fill="none" style="stroke:#181818;stroke-width:0.5;"/><rect fill="#E2E2F0" height="30.2969" rx="2.5" ry="2.5" style="stroke:#181818;stroke-width:0.5;" width="54.5303" x="132.7896" y="50"/><text fill="#000000" font-family="sans-serif" font-size="14" lengthAdjust="spacing" textLength="40.5303" x="139.7896" y="69.9951">Client</text><rect fill="#E2E2F0" height="30.2969" rx="2.5" ry="2.5" style="stroke:#181818;stroke-width:0.5;" width="54.5303" x="132.7896" y="330.2266"/><text fill="#000000" font-family="sans-serif" font-size="14" lengthAdjust="spacing" textLength="40.5303" x="139.7896" y="350.2217">Client</text><rect fill="#E2E2F0" height="30.2969" rx="2.5" ry="2.5" style="stroke:#181818;stroke-width:0.5;" width="59.9102" x="570.271" y="50"/><text fill="#000000" font-family="sans-serif" font-size="14" lengthAdjust="spacing" textLength="45.9102" x="577.271" y="69.9951">Server</text><rect fill="#E2E2F0" height="30.2969" rx="2.5" ry="2.5" style="stroke:#181818;stroke-width:0.5;" width="59.9102" x="570.271" y="330.2266"/><text fill="#000000" font-family="sans-serif" font-size="14" lengthAdjust="spacing" textLength="45.9102" x="577.271" y="350.2217">Server</text><polygon fill="#181818" points="588.2261,108.4297,598.2261,112.4297,588.2261,116.4297,592.2261,112.4297" style="stroke:#181818;stroke-width:1;"/><line style="stroke:#181818;stroke-width:1;" x1="160.0547" x2="594.2261" y1="112.4297" y2="112.4297"/><text fill="#000000" font-family="sans-serif" font-size="13" lengthAdjust="spacing" textLength="101.3848" x="167.0547" y="107.3638">Demande le sel</text><polygon fill="#181818" points="148.0547,137.5625,158.0547,141.5625,148.0547,145.5625,152.0547,141.5625" style="stroke:#181818;stroke-width:1;"/><line style="stroke:#181818;stroke-width:1;" x1="23.9551" x2="154.0547" y1="141.5625" y2="141.5625"/><text fill="#000000" font-family="sans-serif" font-size="13" lengthAdjust="spacing" textLength="112.0996" x="30.9551" y="136.4966">Entre identifiants</text><line style="stroke:#181818;stroke-width:1;" x1="160.0547" x2="202.0547" y1="170.6953" y2="170.6953"/><line style="stroke:#181818;stroke-width:1;" x1="202.0547" x2="202.0547" y1="170.6953" y2="183.6953"/><line style="stroke:#181818;stroke-width:1;" x1="161.0547" x2="202.0547" y1="183.6953" y2="183.6953"/><polygon fill="#181818" points="171.0547,179.6953,161.0547,183.6953,171.0547,187.6953,167.0547,183.6953" style="stroke:#181818;stroke-width:1;"/><text fill="#000000" font-family="sans-serif" font-size="13" lengthAdjust="spacing" textLength="272.4922" x="167.0547" y="165.6294">K_{0-768} = Argon2id(sel || MotDePasse)</text><polygon fill="#181818" points="588.2261,208.8281,598.2261,212.8281,588.2261,216.8281,592.2261,212.8281" style="stroke:#181818;stroke-width:1;"/><line style="stroke:#181818;stroke-width:1;" x1="160.0547" x2="594.2261" y1="212.8281" y2="212.8281"/><text fill="#000000" font-family="sans-serif" font-size="13" lengthAdjust="spacing" textLength="416.1714" x="167.0547" y="207.7622">Envoie K_{0-512} (hash du mot de passe) pour authentification</text><polygon fill="#181818" points="171.0547,237.9609,161.0547,241.9609,171.0547,245.9609,167.0547,241.9609" style="stroke:#181818;stroke-width:1;"/><line style="stroke:#181818;stroke-width:1;" x1="165.0547" x2="599.2261" y1="241.9609" y2="241.9609"/><text fill="#000000" font-family="sans-serif" font-size="13" lengthAdjust="spacing" textLength="330.0464" x="177.0547" y="236.895">Envoie les cl&#233;s priv&#233;es (si authentification r&#233;ussie)</text><polygon fill="#181818" points="171.0547,267.0938,161.0547,271.0938,171.0547,275.0938,167.0547,271.0938" style="stroke:#181818;stroke-width:1;"/><line style="stroke:#181818;stroke-width:1;" x1="165.0547" x2="599.2261" y1="271.0938" y2="271.0938"/><text fill="#000000" font-family="sans-serif" font-size="13" lengthAdjust="spacing" textLength="382.4907" x="177.0547" y="266.0278">Retourne un message d'erreur (si authentification &#233;choue)</text><line style="stroke:#181818;stroke-width:1;" x1="160.0547" x2="202.0547" y1="300.2266" y2="300.2266"/><line style="stroke:#181818;stroke-width:1;" x1="202.0547" x2="202.0547" y1="300.2266" y2="313.2266"/><line style="stroke:#181818;stroke-width:1;" x1="161.0547" x2="202.0547" y1="313.2266" y2="313.2266"/><polygon fill="#181818" points="171.0547,309.2266,161.0547,313.2266,171.0547,317.2266,167.0547,313.2266" style="stroke:#181818;stroke-width:1;"/><text fill="#000000" font-family="sans-serif" font-size="13" lengthAdjust="spacing" textLength="335.3594" x="167.0547" y="295.1606">Utilise K_{512-768} pour d&#233;chiffrer les cl&#233;s priv&#233;es</text><!--SRC=[RP1DQiD038NtFeLsTHU1Dj0V0WsK9gjIA2rPby4ZnuBnZ95cl6bo89_35wjijz1WBoKzVNfFfeY1uI38MMCuKa6DyH5U7A6F5wrFv5PLsJI2rVQtiu4TriPR18SWwB81DemduGRsFZ82MIse94N9FyQVwFNh-sRrSFzuXYTuvcFmQxAvqk1qWhSGT_XkHF1wuVhUju5m0jpThi-GLqOgi0dg445jDUCcD24nc1IhoKTX8WMVPHFcqky8T2XGkBuJQ9ZQljCo5veHWFikYP1wcwC-CEfLZv0yr2XYZWZs2fbHlIpI-gweGbBOmeyEaHp965M3JjyQKzbXYygIzVhSzWy0]--></g></svg>