<svg xmlns="http://www.w3.org/2000/svg" xmlns:xlink="http://www.w3.org/1999/xlink" contentStyleType="text/css" data-diagram-type="SEQUENCE" height="480px" preserveAspectRatio="none" style="width:797px;height:480px;background:#FFFFFF;" version="1.1" viewBox="0 0 797 480" width="797px" zoomAndPan="magnify"><defs/><g><line style="stroke:#181818;stroke-width:0.5;stroke-dasharray:5.0,5.0;" x1="23" x2="23" y1="81.2969" y2="399.3594"/><line style="stroke:#181818;stroke-width:0.5;stroke-dasharray:5.0,5.0;" x1="303.5132" x2="303.5132" y1="81.2969" y2="399.3594"/><line style="stroke:#181818;stroke-width:0.5;stroke-dasharray:5.0,5.0;" x1="760.1055" x2="760.1055" y1="81.2969" y2="399.3594"/><text fill="#000000" font-family="sans-serif" font-size="14" lengthAdjust="spacing" textLength="31.9102" x="5" y="77.9951">User</text><ellipse cx="23.9551" cy="13.5" fill="#E2E2F0" rx="8" ry="8" style="stroke:#181818;stroke-width:0.5;"/><path d="M23.9551,21.5 L23.9551,48.5 M10.9551,29.5 L36.9551,29.5 M23.9551,48.5 L10.9551,63.5 M23.9551,48.5 L36.9551,63.5 " fill="none" style="stroke:#181818;stroke-width:0.5;"/><text fill="#000000" font-family="sans-serif" font-size="14" lengthAdjust="spacing" textLength="31.9102" x="5" y="411.3545">User</text><ellipse cx="23.9551" cy="423.1563" fill="#E2E2F0" rx="8" ry="8" style="stroke:#181818;stroke-width:0.5;"/><path d="M23.9551,431.1563 L23.9551,458.1563 M10.9551,439.1563 L36.9551,439.1563 M23.9551,458.1563 L10.9551,473.1563 M23.9551,458.1563 L36.9551,473.1563 " fill="none" style="stroke:#181818;stroke-width:0.5;"/><rect fill="#E2E2F0" height="30.2969" rx="2.5" ry="2.5" style="stroke:#181818;stroke-width:0.5;" width="54.5303" x="276.5132" y="50"/><text fill="#000000" font-family="sans-serif" font-size="14" lengthAdjust="spacing" textLength="40.5303" x="283.5132" y="69.9951">Client</text><rect fill="#E2E2F0" height="30.2969" rx="2.5" ry="2.5" style="stroke:#181818;stroke-width:0.5;" width="54.5303" x="276.5132" y="398.3594"/><text fill="#000000" font-family="sans-serif" font-size="14" lengthAdjust="spacing" textLength="40.5303" x="283.5132" y="418.3545">Client</text><rect fill="#E2E2F0" height="30.2969" rx="2.5" ry="2.5" style="stroke:#181818;stroke-width:0.5;" width="59.9102" x="731.1055" y="50"/><text fill="#000000" font-family="sans-serif" font-size="14" lengthAdjust="spacing" textLength="45.9102" x="738.1055" y="69.9951">Server</text><rect fill="#E2E2F0" height="30.2969" rx="2.5" ry="2.5" style="stroke:#181818;stroke-width:0.5;" width="59.9102" x="731.1055" y="398.3594"/><text fill="#000000" font-family="sans-serif" font-size="14" lengthAdjust="spacing" textLength="45.9102" x="738.1055" y="418.3545">Server</text><polygon fill="#181818" points="291.7783,108.4297,301.7783,112.4297,291.7783,116.4297,295.7783,112.4297" style="stroke:#181818;stroke-width:1;"/><line style="stroke:#181818;stroke-width:1;" x1="23.9551" x2="297.7783" y1="112.4297" y2="112.4297"/><text fill="#000000" font-family="sans-serif" font-size="13" lengthAdjust="spacing" textLength="255.8232" x="30.9551" y="107.3638">Entre nom d'utilisateur &amp; mot de passe</text><line style="stroke:#181818;stroke-width:1;" x1="303.7783" x2="345.7783" y1="141.5625" y2="141.5625"/><line style="stroke:#181818;stroke-width:1;" x1="345.7783" x2="345.7783" y1="141.5625" y2="154.5625"/><line style="stroke:#181818;stroke-width:1;" x1="304.7783" x2="345.7783" y1="154.5625" y2="154.5625"/><polygon fill="#181818" points="314.7783,150.5625,304.7783,154.5625,314.7783,158.5625,310.7783,154.5625" style="stroke:#181818;stroke-width:1;"/><text fill="#000000" font-family="sans-serif" font-size="13" lengthAdjust="spacing" textLength="152.458" x="310.7783" y="136.4966">G&#233;n&#232;re un sel al&#233;atoire</text><line style="stroke:#181818;stroke-width:1;" x1="303.7783" x2="345.7783" y1="183.6953" y2="183.6953"/><line style="stroke:#181818;stroke-width:1;" x1="345.7783" x2="345.7783" y1="183.6953" y2="196.6953"/><line style="stroke:#181818;stroke-width:1;" x1="304.7783" x2="345.7783" y1="196.6953" y2="196.6953"/><polygon fill="#181818" points="314.7783,192.6953,304.7783,196.6953,314.7783,200.6953,310.7783,196.6953" style="stroke:#181818;stroke-width:1;"/><text fill="#000000" font-family="sans-serif" font-size="13" lengthAdjust="spacing" textLength="272.4922" x="310.7783" y="178.6294">K_{0-768} = Argon2id(sel || MotDePasse)</text><line style="stroke:#181818;stroke-width:1;" x1="303.7783" x2="345.7783" y1="225.8281" y2="225.8281"/><line style="stroke:#181818;stroke-width:1;" x1="345.7783" x2="345.7783" y1="225.8281" y2="238.8281"/><line style="stroke:#181818;stroke-width:1;" x1="304.7783" x2="345.7783" y1="238.8281" y2="238.8281"/><polygon fill="#181818" points="314.7783,234.8281,304.7783,238.8281,314.7783,242.8281,310.7783,238.8281" style="stroke:#181818;stroke-width:1;"/><text fill="#000000" font-family="sans-serif" font-size="13" lengthAdjust="spacing" textLength="253.4429" x="310.7783" y="220.7622">Divise K en K_{0-512} et K_{512-768}</text><polygon fill="#181818" points="749.0605,263.9609,759.0605,267.9609,749.0605,271.9609,753.0605,267.9609" style="stroke:#181818;stroke-width:1;"/><line style="stroke:#181818;stroke-width:1;" x1="303.7783" x2="755.0605" y1="267.9609" y2="267.9609"/><text fill="#000000" font-family="sans-serif" font-size="13" lengthAdjust="spacing" textLength="275.4248" x="310.7783" y="262.895">Envoie K_{0-512} (hash du mot de passe)</text><line style="stroke:#181818;stroke-width:1;" x1="303.7783" x2="345.7783" y1="297.0938" y2="297.0938"/><line style="stroke:#181818;stroke-width:1;" x1="345.7783" x2="345.7783" y1="297.0938" y2="310.0938"/><line style="stroke:#181818;stroke-width:1;" x1="304.7783" x2="345.7783" y1="310.0938" y2="310.0938"/><polygon fill="#181818" points="314.7783,306.0938,304.7783,310.0938,314.7783,314.0938,310.7783,310.0938" style="stroke:#181818;stroke-width:1;"/><text fill="#000000" font-family="sans-serif" font-size="13" lengthAdjust="spacing" textLength="443.2822" x="310.7783" y="292.0278">G&#233;n&#232;re deux paires de cl&#233;s asym&#233;triques (chiffrement et signature)</text><line style="stroke:#181818;stroke-width:1;" x1="303.7783" x2="345.7783" y1="339.2266" y2="339.2266"/><line style="stroke:#181818;stroke-width:1;" x1="345.7783" x2="345.7783" y1="339.2266" y2="352.2266"/><line style="stroke:#181818;stroke-width:1;" x1="304.7783" x2="345.7783" y1="352.2266" y2="352.2266"/><polygon fill="#181818" points="314.7783,348.2266,304.7783,352.2266,314.7783,356.2266,310.7783,352.2266" style="stroke:#181818;stroke-width:1;"/><text fill="#000000" font-family="sans-serif" font-size="13" lengthAdjust="spacing" textLength="319.1094" x="310.7783" y="334.1606">Utilise K_{512-768} pour chiffrer les cl&#233;s priv&#233;es</text><polygon fill="#181818" points="749.0605,377.3594,759.0605,381.3594,749.0605,385.3594,753.0605,381.3594" style="stroke:#181818;stroke-width:1;"/><line style="stroke:#181818;stroke-width:1;" x1="303.7783" x2="755.0605" y1="381.3594" y2="381.3594"/><text fill="#000000" font-family="sans-serif" font-size="13" lengthAdjust="spacing" textLength="343.3003" x="310.7783" y="376.2935">Envoie paires de cl&#233;s asym&#233;triques chiffr&#233;es &amp; le sel</text><!--SRC=[VP7FIiD04CRlUOevQNeeQC4_20fYnKCH1EbPbcJQ36nsuyniK6pVnpn7NipTfeSKQc-xm_TzCxyPKwXdM0forXXMAgWnJk794ZezABqZjr6L9IrC7_QIEtXsoWZErr2U1oLBOXG3mndKNg54Q8m8PeDyR7pfEzV_Hczm86Z1sBupwecFYHSVFnVJc-lRBTp38w-zcr6P9zTc0wzUv_YMkaoEEEVKaY0i0DsGSdKvsm9g-iJdBdHa6p0JLki9HuwyCb916Gwm9jafi1B3LzH58acE8W8A6Fck-qwPFaCivqL5gnLZdJBYK49hPpJmKPJbRhqudXmQ7tUz3s6mCN9eqp2rVOVoFzhfmOR8b10lQJ5Tw0y0]--></g></svg>