<svg xmlns="http://www.w3.org/2000/svg" xmlns:xlink="http://www.w3.org/1999/xlink" contentStyleType="text/css" data-diagram-type="SEQUENCE" height="513px" preserveAspectRatio="none" style="width:858px;height:513px;background:#FFFFFF;" version="1.1" viewBox="0 0 858 513" width="858px" zoomAndPan="magnify"><defs/><g><rect fill="none" height="116.2031" style="stroke:#000000;stroke-width:1.5;" width="265.2554" x="320.8413" y="256.9609"/><line style="stroke:#181818;stroke-width:0.5;stroke-dasharray:5.0,5.0;" x1="38" x2="38" y1="81.2969" y2="432.2969"/><line style="stroke:#181818;stroke-width:0.5;stroke-dasharray:5.0,5.0;" x1="357.8413" x2="357.8413" y1="81.2969" y2="432.2969"/><line style="stroke:#181818;stroke-width:0.5;stroke-dasharray:5.0,5.0;" x1="821.1748" x2="821.1748" y1="81.2969" y2="432.2969"/><text fill="#000000" font-family="sans-serif" font-size="14" lengthAdjust="spacing" textLength="61.1953" x="5" y="77.9951">Receiver</text><ellipse cx="38.5977" cy="13.5" fill="#E2E2F0" rx="8" ry="8" style="stroke:#181818;stroke-width:0.5;"/><path d="M38.5977,21.5 L38.5977,48.5 M25.5977,29.5 L51.5977,29.5 M38.5977,48.5 L25.5977,63.5 M38.5977,48.5 L51.5977,63.5 " fill="none" style="stroke:#181818;stroke-width:0.5;"/><text fill="#000000" font-family="sans-serif" font-size="14" lengthAdjust="spacing" textLength="61.1953" x="5" y="444.292">Receiver</text><ellipse cx="38.5977" cy="456.0938" fill="#E2E2F0" rx="8" ry="8" style="stroke:#181818;stroke-width:0.5;"/><path d="M38.5977,464.0938 L38.5977,491.0938 M25.5977,472.0938 L51.5977,472.0938 M38.5977,491.0938 L25.5977,506.0938 M38.5977,491.0938 L51.5977,506.0938 " fill="none" style="stroke:#181818;stroke-width:0.5;"/><rect fill="#E2E2F0" height="30.2969" rx="2.5" ry="2.5" style="stroke:#181818;stroke-width:0.5;" width="54.5303" x="330.8413" y="50"/><text fill="#000000" font-family="sans-serif" font-size="14" lengthAdjust="spacing" textLength="40.5303" x="337.8413" y="69.9951">Client</text><rect fill="#E2E2F0" height="30.2969" rx="2.5" ry="2.5" style="stroke:#181818;stroke-width:0.5;" width="54.5303" x="330.8413" y="431.2969"/><text fill="#000000" font-family="sans-serif" font-size="14" lengthAdjust="spacing" textLength="40.5303" x="337.8413" y="451.292">Client</text><rect fill="#E2E2F0" height="30.2969" rx="2.5" ry="2.5" style="stroke:#181818;stroke-width:0.5;" width="59.9102" x="792.1748" y="50"/><text fill="#000000" font-family="sans-serif" font-size="14" lengthAdjust="spacing" textLength="45.9102" x="799.1748" y="69.9951">Server</text><rect fill="#E2E2F0" height="30.2969" rx="2.5" ry="2.5" style="stroke:#181818;stroke-width:0.5;" width="59.9102" x="792.1748" y="431.2969"/><text fill="#000000" font-family="sans-serif" font-size="14" lengthAdjust="spacing" textLength="45.9102" x="799.1748" y="451.292">Server</text><polygon fill="#181818" points="346.1064,108.4297,356.1064,112.4297,346.1064,116.4297,350.1064,112.4297" style="stroke:#181818;stroke-width:1;"/><line style="stroke:#181818;stroke-width:1;" x1="38.5977" x2="352.1064" y1="112.4297" y2="112.4297"/><text fill="#000000" font-family="sans-serif" font-size="13" lengthAdjust="spacing" textLength="295.5088" x="45.5977" y="107.3638">Doit &#234;tre connect&#233; pour recevoir un message</text><polygon fill="#181818" points="346.1064,137.5625,356.1064,141.5625,346.1064,145.5625,350.1064,141.5625" style="stroke:#181818;stroke-width:1;"/><line style="stroke:#181818;stroke-width:1;" x1="38.5977" x2="352.1064" y1="141.5625" y2="141.5625"/><text fill="#000000" font-family="sans-serif" font-size="13" lengthAdjust="spacing" textLength="252.1606" x="45.5977" y="136.4966">T&#233;l&#233;charge le message &#224; tout moment</text><polygon fill="#181818" points="810.1299,166.6953,820.1299,170.6953,810.1299,174.6953,814.1299,170.6953" style="stroke:#181818;stroke-width:1;"/><line style="stroke:#181818;stroke-width:1;" x1="358.1064" x2="816.1299" y1="170.6953" y2="170.6953"/><text fill="#000000" font-family="sans-serif" font-size="13" lengthAdjust="spacing" textLength="141.4258" x="365.1064" y="165.6294">Demande le message</text><polygon fill="#181818" points="369.1064,195.8281,359.1064,199.8281,369.1064,203.8281,365.1064,199.8281" style="stroke:#181818;stroke-width:1;"/><line style="stroke:#181818;stroke-width:1;" x1="363.1064" x2="821.1299" y1="199.8281" y2="199.8281"/><text fill="#000000" font-family="sans-serif" font-size="13" lengthAdjust="spacing" textLength="367.0469" x="375.1064" y="194.7622">Envoie le message avec nonce et donn&#233;es authentifi&#233;es</text><line style="stroke:#181818;stroke-width:1;" x1="358.1064" x2="400.1064" y1="228.9609" y2="228.9609"/><line style="stroke:#181818;stroke-width:1;" x1="400.1064" x2="400.1064" y1="228.9609" y2="241.9609"/><line style="stroke:#181818;stroke-width:1;" x1="359.1064" x2="400.1064" y1="241.9609" y2="241.9609"/><polygon fill="#181818" points="369.1064,237.9609,359.1064,241.9609,369.1064,245.9609,365.1064,241.9609" style="stroke:#181818;stroke-width:1;"/><text fill="#000000" font-family="sans-serif" font-size="13" lengthAdjust="spacing" textLength="232.6162" x="365.1064" y="223.895">V&#233;rifie si le nonce est diff&#233;rent de 0</text><path d="M320.8413,256.9609 L385.2842,256.9609 L385.2842,264.0938 L375.2842,274.0938 L320.8413,274.0938 L320.8413,256.9609 " fill="#EEEEEE" style="stroke:#000000;stroke-width:1.5;"/><rect fill="none" height="116.2031" style="stroke:#000000;stroke-width:1.5;" width="265.2554" x="320.8413" y="256.9609"/><text fill="#000000" font-family="sans-serif" font-size="13" font-weight="bold" lengthAdjust="spacing" textLength="19.4429" x="335.8413" y="270.0278">alt</text><text fill="#000000" font-family="sans-serif" font-size="11" font-weight="bold" lengthAdjust="spacing" textLength="137.7578" x="400.2842" y="269.1714">[Nonce diff&#233;rent de 0]</text><line style="stroke:#181818;stroke-width:1;" x1="358.1064" x2="400.1064" y1="295.2266" y2="295.2266"/><line style="stroke:#181818;stroke-width:1;" x1="400.1064" x2="400.1064" y1="295.2266" y2="308.2266"/><line style="stroke:#181818;stroke-width:1;" x1="359.1064" x2="400.1064" y1="308.2266" y2="308.2266"/><polygon fill="#181818" points="369.1064,304.2266,359.1064,308.2266,369.1064,312.2266,365.1064,308.2266" style="stroke:#181818;stroke-width:1;"/><text fill="#000000" font-family="sans-serif" font-size="13" lengthAdjust="spacing" textLength="137.8013" x="365.1064" y="290.1606">D&#233;chiffre le message</text><line style="stroke:#000000;stroke-width:1;stroke-dasharray:2.0,2.0;" x1="320.8413" x2="586.0967" y1="317.2266" y2="317.2266"/><text fill="#000000" font-family="sans-serif" font-size="11" font-weight="bold" lengthAdjust="spacing" textLength="71.3657" x="325.8413" y="327.437">[Nonce &#224; 0]</text><line style="stroke:#181818;stroke-width:1;" x1="358.1064" x2="400.1064" y1="352.1641" y2="352.1641"/><line style="stroke:#181818;stroke-width:1;" x1="400.1064" x2="400.1064" y1="352.1641" y2="365.1641"/><line style="stroke:#181818;stroke-width:1;" x1="359.1064" x2="400.1064" y1="365.1641" y2="365.1641"/><polygon fill="#181818" points="369.1064,361.1641,359.1064,365.1641,369.1064,369.1641,365.1064,365.1641" style="stroke:#181818;stroke-width:1;"/><text fill="#000000" font-family="sans-serif" font-size="13" lengthAdjust="spacing" textLength="208.9902" x="365.1064" y="347.0981">Attend la date de d&#233;chiffrement</text><line style="stroke:#181818;stroke-width:1;" x1="358.1064" x2="400.1064" y1="401.2969" y2="401.2969"/><line style="stroke:#181818;stroke-width:1;" x1="400.1064" x2="400.1064" y1="401.2969" y2="414.2969"/><line style="stroke:#181818;stroke-width:1;" x1="359.1064" x2="400.1064" y1="414.2969" y2="414.2969"/><polygon fill="#181818" points="369.1064,410.2969,359.1064,414.2969,369.1064,418.2969,365.1064,414.2969" style="stroke:#181818;stroke-width:1;"/><text fill="#000000" font-family="sans-serif" font-size="13" lengthAdjust="spacing" textLength="450.0234" x="365.1064" y="396.231">V&#233;rifie les donn&#233;es authentifi&#233;es avec la cl&#233; publique de l'exp&#233;diteur</text><!--SRC=[VP4zJWGn38NxdC8T5H8r1H9YQIa0qOV4inifamoEC-8ujE4QkHZE_A0PO4cNlEVFpuus70aUqQ0RaTIWYPrnWmuCTzvXuDtJ4r9pgTKFbpUBxHeEqJ7KJoO44qD0mxN043C1YNkCZY07w34bVSG_2S-r-5hCITCHmUFgXVe173D37_iMQBQtmZcEjCPU1xkjKMhMjlZx825sO3sYWH23GK06AwbhmGGwyqagNEVQLMqQhgYNMaXaXEGQRq4aORYk4wtP9S-LqfxXOL9_AY3dD_ZGvXSdxOP1dt31o2xErTuoOx3WDLZDsBhORzgqE57_7SRBx6UMCAzAqCQtNyslthtbgOU_mFUX5kiOCtq1]--></g></svg>