<svg xmlns="http://www.w3.org/2000/svg" xmlns:xlink="http://www.w3.org/1999/xlink" contentStyleType="text/css" data-diagram-type="SEQUENCE" height="493px" preserveAspectRatio="none" style="width:1480px;height:493px;background:#FFFFFF;" version="1.1" viewBox="0 0 1480 493" width="1480px" zoomAndPan="magnify"><defs/><g><line style="stroke:#181818;stroke-width:0.5;stroke-dasharray:5.0,5.0;" x1="23" x2="23" y1="81.2969" y2="412.3594"/><line style="stroke:#181818;stroke-width:0.5;stroke-dasharray:5.0,5.0;" x1="367.9927" x2="367.9927" y1="81.2969" y2="412.3594"/><line style="stroke:#181818;stroke-width:0.5;stroke-dasharray:5.0,5.0;" x1="1193.3862" x2="1193.3862" y1="81.2969" y2="412.3594"/><text fill="#000000" font-family="sans-serif" font-size="14" lengthAdjust="spacing" textLength="31.9102" x="5" y="77.9951">User</text><ellipse cx="23.9551" cy="13.5" fill="#E2E2F0" rx="8" ry="8" style="stroke:#181818;stroke-width:0.5;"/><path d="M23.9551,21.5 L23.9551,48.5 M10.9551,29.5 L36.9551,29.5 M23.9551,48.5 L10.9551,63.5 M23.9551,48.5 L36.9551,63.5 " fill="none" style="stroke:#181818;stroke-width:0.5;"/><text fill="#000000" font-family="sans-serif" font-size="14" lengthAdjust="spacing" textLength="31.9102" x="5" y="424.3545">User</text><ellipse cx="23.9551" cy="436.1563" fill="#E2E2F0" rx="8" ry="8" style="stroke:#181818;stroke-width:0.5;"/><path d="M23.9551,444.1563 L23.9551,471.1563 M10.9551,452.1563 L36.9551,452.1563 M23.9551,471.1563 L10.9551,486.1563 M23.9551,471.1563 L36.9551,486.1563 " fill="none" style="stroke:#181818;stroke-width:0.5;"/><rect fill="#E2E2F0" height="30.2969" rx="2.5" ry="2.5" style="stroke:#181818;stroke-width:0.5;" width="54.5303" x="340.9927" y="50"/><text fill="#000000" font-family="sans-serif" font-size="14" lengthAdjust="spacing" textLength="40.5303" x="347.9927" y="69.9951">Client</text><rect fill="#E2E2F0" height="30.2969" rx="2.5" ry="2.5" style="stroke:#181818;stroke-width:0.5;" width="54.5303" x="340.9927" y="411.3594"/><text fill="#000000" font-family="sans-serif" font-size="14" lengthAdjust="spacing" textLength="40.5303" x="347.9927" y="431.3545">Client</text><rect fill="#E2E2F0" height="30.2969" rx="2.5" ry="2.5" style="stroke:#181818;stroke-width:0.5;" width="59.9102" x="1164.3862" y="50"/><text fill="#000000" font-family="sans-serif" font-size="14" lengthAdjust="spacing" textLength="45.9102" x="1171.3862" y="69.9951">Server</text><rect fill="#E2E2F0" height="30.2969" rx="2.5" ry="2.5" style="stroke:#181818;stroke-width:0.5;" width="59.9102" x="1164.3862" y="411.3594"/><text fill="#000000" font-family="sans-serif" font-size="14" lengthAdjust="spacing" textLength="45.9102" x="1171.3862" y="431.3545">Server</text><polygon fill="#181818" points="356.2578,108.4297,366.2578,112.4297,356.2578,116.4297,360.2578,112.4297" style="stroke:#181818;stroke-width:1;"/><line style="stroke:#181818;stroke-width:1;" x1="23.9551" x2="362.2578" y1="112.4297" y2="112.4297"/><text fill="#000000" font-family="sans-serif" font-size="13" lengthAdjust="spacing" textLength="320.3027" x="30.9551" y="107.3638">Doit &#234;tre connect&#233; pour changer le mot de passe</text><line style="stroke:#181818;stroke-width:1;" x1="368.2578" x2="410.2578" y1="141.5625" y2="141.5625"/><line style="stroke:#181818;stroke-width:1;" x1="410.2578" x2="410.2578" y1="141.5625" y2="154.5625"/><line style="stroke:#181818;stroke-width:1;" x1="369.2578" x2="410.2578" y1="154.5625" y2="154.5625"/><polygon fill="#181818" points="379.2578,150.5625,369.2578,154.5625,379.2578,158.5625,375.2578,154.5625" style="stroke:#181818;stroke-width:1;"/><text fill="#000000" font-family="sans-serif" font-size="13" lengthAdjust="spacing" textLength="275.4121" x="375.2578" y="136.4966">G&#233;n&#232;re un nouveau sel al&#233;atoire (NewSel)</text><line style="stroke:#181818;stroke-width:1;" x1="368.2578" x2="410.2578" y1="183.6953" y2="183.6953"/><line style="stroke:#181818;stroke-width:1;" x1="410.2578" x2="410.2578" y1="183.6953" y2="196.6953"/><line style="stroke:#181818;stroke-width:1;" x1="369.2578" x2="410.2578" y1="196.6953" y2="196.6953"/><polygon fill="#181818" points="379.2578,192.6953,369.2578,196.6953,379.2578,200.6953,375.2578,196.6953" style="stroke:#181818;stroke-width:1;"/><text fill="#000000" font-family="sans-serif" font-size="13" lengthAdjust="spacing" textLength="326.4346" x="375.2578" y="178.6294">K1_{0-512} = Argon2id(OldSel || OldMotDePasse)</text><line style="stroke:#181818;stroke-width:1;" x1="368.2578" x2="410.2578" y1="225.8281" y2="225.8281"/><line style="stroke:#181818;stroke-width:1;" x1="410.2578" x2="410.2578" y1="225.8281" y2="238.8281"/><line style="stroke:#181818;stroke-width:1;" x1="369.2578" x2="410.2578" y1="238.8281" y2="238.8281"/><polygon fill="#181818" points="379.2578,234.8281,369.2578,238.8281,379.2578,242.8281,375.2578,238.8281" style="stroke:#181818;stroke-width:1;"/><text fill="#000000" font-family="sans-serif" font-size="13" lengthAdjust="spacing" textLength="338.9521" x="375.2578" y="220.7622">K2_{0-512} = Argon2id(NewSel || NewMotDePasse)</text><line style="stroke:#181818;stroke-width:1;" x1="368.2578" x2="410.2578" y1="267.9609" y2="267.9609"/><line style="stroke:#181818;stroke-width:1;" x1="410.2578" x2="410.2578" y1="267.9609" y2="280.9609"/><line style="stroke:#181818;stroke-width:1;" x1="369.2578" x2="410.2578" y1="280.9609" y2="280.9609"/><polygon fill="#181818" points="379.2578,276.9609,369.2578,280.9609,379.2578,284.9609,375.2578,280.9609" style="stroke:#181818;stroke-width:1;"/><text fill="#000000" font-family="sans-serif" font-size="13" lengthAdjust="spacing" textLength="296.7085" x="375.2578" y="262.895">D&#233;chiffre les cl&#233;s priv&#233;es avec K1_{512-768}</text><line style="stroke:#181818;stroke-width:1;" x1="368.2578" x2="410.2578" y1="310.0938" y2="310.0938"/><line style="stroke:#181818;stroke-width:1;" x1="410.2578" x2="410.2578" y1="310.0938" y2="323.0938"/><line style="stroke:#181818;stroke-width:1;" x1="369.2578" x2="410.2578" y1="323.0938" y2="323.0938"/><polygon fill="#181818" points="379.2578,319.0938,369.2578,323.0938,379.2578,327.0938,375.2578,323.0938" style="stroke:#181818;stroke-width:1;"/><text fill="#000000" font-family="sans-serif" font-size="13" lengthAdjust="spacing" textLength="280.6299" x="375.2578" y="305.0278">Chiffre les cl&#233;s priv&#233;es avec K2_{512-768}</text><polygon fill="#181818" points="1182.3413,348.2266,1192.3413,352.2266,1182.3413,356.2266,1186.3413,352.2266" style="stroke:#181818;stroke-width:1;"/><line style="stroke:#181818;stroke-width:1;" x1="368.2578" x2="1188.3413" y1="352.2266" y2="352.2266"/><text fill="#000000" font-family="sans-serif" font-size="13" lengthAdjust="spacing" textLength="802.0835" x="375.2578" y="347.1606">Envoie requ&#234;te de changement de mot de passe avec K1_{0-512}, K2_{0-512}, cl&#233;s priv&#233;es chiffr&#233;es, et nom d'utilisateur</text><line style="stroke:#181818;stroke-width:1;" x1="1194.3413" x2="1236.3413" y1="381.3594" y2="381.3594"/><line style="stroke:#181818;stroke-width:1;" x1="1236.3413" x2="1236.3413" y1="381.3594" y2="394.3594"/><line style="stroke:#181818;stroke-width:1;" x1="1195.3413" x2="1236.3413" y1="394.3594" y2="394.3594"/><polygon fill="#181818" points="1205.3413,390.3594,1195.3413,394.3594,1205.3413,398.3594,1201.3413,394.3594" style="stroke:#181818;stroke-width:1;"/><text fill="#000000" font-family="sans-serif" font-size="13" lengthAdjust="spacing" textLength="271.6606" x="1201.3413" y="376.2935">Met &#224; jour les informations de l'utilisateur</text><!--SRC=[XLBDIWCn4BxlKypD2YtO1NyG5AGL3r8LYcS9sMaRoIPhChiURD_5e-jhvCMS6C5K5hnDakzlPY8aMGUF7btH24TAgaOOWfbMQ6ZlQeckOrGHiJ2v_86SmzmgWl193a5QOr1IwA6nhGEv4MRDO8rGMu8AeH7UOv6OkSPDw4tuO8NMWB5jXw85Zng43hqWg_XbT8UlIzI70-pRwTFRqUHuMkxW0gxSsffILQDxNJ4UjblWQc5fZW_HVL2W7198Xb60grnWG64UUhbHgnK7rUX1ScuFZLDTwFaeEfJVATbYSdfojXjGcFr7BpDwnazhEOThqrc5uF2bvMLWd7QQVns1rVuAVXEbjiVP2CP_xLDZiHm34k-dXkgW9QML5uIjArA4FCo2SU4TdkClY0qfixAk5gIiyJ64plbV]--></g></svg>