<svg xmlns="http://www.w3.org/2000/svg" xmlns:xlink="http://www.w3.org/1999/xlink" contentStyleType="text/css" data-diagram-type="SEQUENCE" height="651px" preserveAspectRatio="none" style="width:1016px;height:651px;background:#FFFFFF;" version="1.1" viewBox="0 0 1016 651" width="1016px" zoomAndPan="magnify"><defs/><g><rect fill="none" height="90.2031" style="stroke:#000000;stroke-width:1.5;" width="774.2622" x="60.6289" y="463.8906"/><line style="stroke:#181818;stroke-width:0.5;stroke-dasharray:5.0,5.0;" x1="32" x2="32" y1="81.2969" y2="571.0938"/><line style="stroke:#181818;stroke-width:0.5;stroke-dasharray:5.0,5.0;" x1="103.6289" x2="103.6289" y1="81.2969" y2="571.0938"/><line style="stroke:#181818;stroke-width:0.5;stroke-dasharray:5.0,5.0;" x1="351.8867" x2="351.8867" y1="81.2969" y2="571.0938"/><line style="stroke:#181818;stroke-width:0.5;stroke-dasharray:5.0,5.0;" x1="793.981" x2="793.981" y1="81.2969" y2="571.0938"/><text fill="#000000" font-family="sans-serif" font-size="14" lengthAdjust="spacing" textLength="49.6289" x="5" y="77.9951">Sender</text><ellipse cx="32.8145" cy="13.5" fill="#E2E2F0" rx="8" ry="8" style="stroke:#181818;stroke-width:0.5;"/><path d="M32.8145,21.5 L32.8145,48.5 M19.8145,29.5 L45.8145,29.5 M32.8145,48.5 L19.8145,63.5 M32.8145,48.5 L45.8145,63.5 " fill="none" style="stroke:#181818;stroke-width:0.5;"/><text fill="#000000" font-family="sans-serif" font-size="14" lengthAdjust="spacing" textLength="49.6289" x="5" y="583.0889">Sender</text><ellipse cx="32.8145" cy="594.8906" fill="#E2E2F0" rx="8" ry="8" style="stroke:#181818;stroke-width:0.5;"/><path d="M32.8145,602.8906 L32.8145,629.8906 M19.8145,610.8906 L45.8145,610.8906 M32.8145,629.8906 L19.8145,644.8906 M32.8145,629.8906 L45.8145,644.8906 " fill="none" style="stroke:#181818;stroke-width:0.5;"/><text fill="#000000" font-family="sans-serif" font-size="14" lengthAdjust="spacing" textLength="61.1953" x="70.6289" y="77.9951">Receiver</text><ellipse cx="104.2266" cy="13.5" fill="#E2E2F0" rx="8" ry="8" style="stroke:#181818;stroke-width:0.5;"/><path d="M104.2266,21.5 L104.2266,48.5 M91.2266,29.5 L117.2266,29.5 M104.2266,48.5 L91.2266,63.5 M104.2266,48.5 L117.2266,63.5 " fill="none" style="stroke:#181818;stroke-width:0.5;"/><text fill="#000000" font-family="sans-serif" font-size="14" lengthAdjust="spacing" textLength="61.1953" x="70.6289" y="583.0889">Receiver</text><ellipse cx="104.2266" cy="594.8906" fill="#E2E2F0" rx="8" ry="8" style="stroke:#181818;stroke-width:0.5;"/><path d="M104.2266,602.8906 L104.2266,629.8906 M91.2266,610.8906 L117.2266,610.8906 M104.2266,629.8906 L91.2266,644.8906 M104.2266,629.8906 L117.2266,644.8906 " fill="none" style="stroke:#181818;stroke-width:0.5;"/><rect fill="#E2E2F0" height="30.2969" rx="2.5" ry="2.5" style="stroke:#181818;stroke-width:0.5;" width="54.5303" x="324.8867" y="50"/><text fill="#000000" font-family="sans-serif" font-size="14" lengthAdjust="spacing" textLength="40.5303" x="331.8867" y="69.9951">Client</text><rect fill="#E2E2F0" height="30.2969" rx="2.5" ry="2.5" style="stroke:#181818;stroke-width:0.5;" width="54.5303" x="324.8867" y="570.0938"/><text fill="#000000" font-family="sans-serif" font-size="14" lengthAdjust="spacing" textLength="40.5303" x="331.8867" y="590.0889">Client</text><rect fill="#E2E2F0" height="30.2969" rx="2.5" ry="2.5" style="stroke:#181818;stroke-width:0.5;" width="59.9102" x="764.981" y="50"/><text fill="#000000" font-family="sans-serif" font-size="14" lengthAdjust="spacing" textLength="45.9102" x="771.981" y="69.9951">Server</text><rect fill="#E2E2F0" height="30.2969" rx="2.5" ry="2.5" style="stroke:#181818;stroke-width:0.5;" width="59.9102" x="764.981" y="570.0938"/><text fill="#000000" font-family="sans-serif" font-size="14" lengthAdjust="spacing" textLength="45.9102" x="771.981" y="590.0889">Server</text><polygon fill="#181818" points="340.1519,108.4297,350.1519,112.4297,340.1519,116.4297,344.1519,112.4297" style="stroke:#181818;stroke-width:1;"/><line style="stroke:#181818;stroke-width:1;" x1="32.8145" x2="346.1519" y1="112.4297" y2="112.4297"/><text fill="#000000" font-family="sans-serif" font-size="13" lengthAdjust="spacing" textLength="295.3374" x="39.8145" y="107.3638">Doit &#234;tre connect&#233; pour envoyer un message</text><polygon fill="#181818" points="782.936,137.5625,792.936,141.5625,782.936,145.5625,786.936,141.5625" style="stroke:#181818;stroke-width:1;"/><line style="stroke:#181818;stroke-width:1;" x1="352.1519" x2="788.936" y1="141.5625" y2="141.5625"/><text fill="#000000" font-family="sans-serif" font-size="13" lengthAdjust="spacing" textLength="350.4985" x="359.1519" y="136.4966">Demande la cl&#233; publique de chiffrement du r&#233;cepteur</text><line style="stroke:#181818;stroke-width:1;" x1="352.1519" x2="394.1519" y1="170.6953" y2="170.6953"/><line style="stroke:#181818;stroke-width:1;" x1="394.1519" x2="394.1519" y1="170.6953" y2="183.6953"/><line style="stroke:#181818;stroke-width:1;" x1="353.1519" x2="394.1519" y1="183.6953" y2="183.6953"/><polygon fill="#181818" points="363.1519,179.6953,353.1519,183.6953,363.1519,187.6953,359.1519,183.6953" style="stroke:#181818;stroke-width:1;"/><text fill="#000000" font-family="sans-serif" font-size="13" lengthAdjust="spacing" textLength="197.6533" x="359.1519" y="165.6294">G&#233;n&#232;re un nonce al&#233;atoire (N)</text><line style="stroke:#181818;stroke-width:1;" x1="352.1519" x2="394.1519" y1="212.8281" y2="212.8281"/><line style="stroke:#181818;stroke-width:1;" x1="394.1519" x2="394.1519" y1="212.8281" y2="225.8281"/><line style="stroke:#181818;stroke-width:1;" x1="353.1519" x2="394.1519" y1="225.8281" y2="225.8281"/><polygon fill="#181818" points="363.1519,221.8281,353.1519,225.8281,363.1519,229.8281,359.1519,225.8281" style="stroke:#181818;stroke-width:1;"/><text fill="#000000" font-family="sans-serif" font-size="13" lengthAdjust="spacing" textLength="393.6499" x="359.1519" y="207.7622">Chiffre le message avec une dryocBox (chiffrement hybride)</text><line style="stroke:#181818;stroke-width:1;" x1="352.1519" x2="394.1519" y1="254.9609" y2="254.9609"/><line style="stroke:#181818;stroke-width:1;" x1="394.1519" x2="394.1519" y1="254.9609" y2="267.9609"/><line style="stroke:#181818;stroke-width:1;" x1="353.1519" x2="394.1519" y1="267.9609" y2="267.9609"/><polygon fill="#181818" points="363.1519,263.9609,353.1519,267.9609,363.1519,271.9609,359.1519,267.9609" style="stroke:#181818;stroke-width:1;"/><text fill="#000000" font-family="sans-serif" font-size="13" lengthAdjust="spacing" textLength="428.7842" x="359.1519" y="249.895">Signe les donn&#233;es authentifi&#233;es avec la cl&#233; priv&#233;e de l'exp&#233;diteur</text><path d="M357,280.9609 L357,350.9609 L686,350.9609 L686,290.9609 L676,280.9609 L357,280.9609 " fill="#FEFFDD" style="stroke:#181818;stroke-width:0.5;"/><path d="M676,280.9609 L676,290.9609 L686,290.9609 L676,280.9609 " fill="#FEFFDD" style="stroke:#181818;stroke-width:0.5;"/><text fill="#000000" font-family="sans-serif" font-size="13" lengthAdjust="spacing" textLength="155.3018" x="363" y="298.0278">Donn&#233;es authentifi&#233;es :</text><text fill="#000000" font-family="sans-serif" font-size="13" lengthAdjust="spacing" textLength="308.6357" x="363" y="313.1606">- Receiver : Nom de l'utilisateur du destinataire</text><text fill="#000000" font-family="sans-serif" font-size="13" lengthAdjust="spacing" textLength="297.3687" x="363" y="328.2935">- Sender : Nom de l'utilisateur de l'exp&#233;diteur</text><text fill="#000000" font-family="sans-serif" font-size="13" lengthAdjust="spacing" textLength="199.8687" x="363" y="343.4263">- Date : Date de d&#233;chiffrement</text><polygon fill="#181818" points="782.936,373.625,792.936,377.625,782.936,381.625,786.936,377.625" style="stroke:#181818;stroke-width:1;"/><line style="stroke:#181818;stroke-width:1;" x1="352.1519" x2="788.936" y1="377.625" y2="377.625"/><text fill="#000000" font-family="sans-serif" font-size="13" lengthAdjust="spacing" textLength="366.1265" x="359.1519" y="372.5591">Envoie message chiffr&#233;, nonce et donn&#233;es authentifi&#233;es</text><polygon fill="#181818" points="782.936,402.7578,792.936,406.7578,782.936,410.7578,786.936,406.7578" style="stroke:#181818;stroke-width:1;"/><line style="stroke:#181818;stroke-width:1;" x1="104.2266" x2="788.936" y1="406.7578" y2="406.7578"/><text fill="#000000" font-family="sans-serif" font-size="13" lengthAdjust="spacing" textLength="141.4258" x="111.2266" y="401.6919">Demande le message</text><line style="stroke:#181818;stroke-width:1;" x1="794.936" x2="836.936" y1="435.8906" y2="435.8906"/><line style="stroke:#181818;stroke-width:1;" x1="836.936" x2="836.936" y1="435.8906" y2="448.8906"/><line style="stroke:#181818;stroke-width:1;" x1="795.936" x2="836.936" y1="448.8906" y2="448.8906"/><polygon fill="#181818" points="805.936,444.8906,795.936,448.8906,805.936,452.8906,801.936,448.8906" style="stroke:#181818;stroke-width:1;"/><text fill="#000000" font-family="sans-serif" font-size="13" lengthAdjust="spacing" textLength="207.4478" x="801.936" y="430.8247">V&#233;rifie la date de d&#233;chiffrement</text><path d="M60.6289,463.8906 L125.0718,463.8906 L125.0718,471.0234 L115.0718,481.0234 L60.6289,481.0234 L60.6289,463.8906 " fill="#EEEEEE" style="stroke:#000000;stroke-width:1.5;"/><rect fill="none" height="90.2031" style="stroke:#000000;stroke-width:1.5;" width="774.2622" x="60.6289" y="463.8906"/><text fill="#000000" font-family="sans-serif" font-size="13" font-weight="bold" lengthAdjust="spacing" textLength="19.4429" x="75.6289" y="476.9575">alt</text><text fill="#000000" font-family="sans-serif" font-size="11" font-weight="bold" lengthAdjust="spacing" textLength="197.3877" x="140.0718" y="476.1011">[Date de d&#233;chiffrement pass&#233;e]</text><polygon fill="#181818" points="115.2266,498.1563,105.2266,502.1563,115.2266,506.1563,111.2266,502.1563" style="stroke:#181818;stroke-width:1;"/><line style="stroke:#181818;stroke-width:1;" x1="109.2266" x2="793.936" y1="502.1563" y2="502.1563"/><text fill="#000000" font-family="sans-serif" font-size="13" lengthAdjust="spacing" textLength="227.4365" x="121.2266" y="497.0903">Envoie le vrai nonce et le message</text><line style="stroke:#000000;stroke-width:1;stroke-dasharray:2.0,2.0;" x1="60.6289" x2="834.8911" y1="511.1563" y2="511.1563"/><text fill="#000000" font-family="sans-serif" font-size="11" font-weight="bold" lengthAdjust="spacing" textLength="224.4365" x="65.6289" y="521.3667">[Date de d&#233;chiffrement non pass&#233;e]</text><polygon fill="#181818" points="115.2266,542.0938,105.2266,546.0938,115.2266,550.0938,111.2266,546.0938" style="stroke:#181818;stroke-width:1;"/><line style="stroke:#181818;stroke-width:1;" x1="109.2266" x2="793.936" y1="546.0938" y2="546.0938"/><text fill="#000000" font-family="sans-serif" font-size="13" lengthAdjust="spacing" textLength="132.5327" x="121.2266" y="541.0278">Envoie un nonce &#224; 0</text><!--SRC=[ZPAnJiCm48RtFCLj50aavWuCKCJMWKhiXtDjJtBju5mY-ZQCXDVmYt6EswIWHA9BQll-p_z_PpJY0sp8bHGAx1SlP8XRNLOOX0rNw0GUBPEJNriR2gcgo6AulJyLBM7bMI1-Io0mtZao4ZkeV1E0NEkFMjmuE51TuuwAB4ho35Gv7L2HO16CJShcpV9xGw1xPi_RRQ13afGDXDWPgeIQSC4vstYEdOjVQa9lSzuP0bGSYcVTMwol9oIF6G-Mplu0Mp9AqDl3qPi7_m6BInFxurlWagPW6zwvXAgXr2x4JlzW8tizuotdPM8FCGEtkfjIsYlwg69NSf_CUI48lDiB-Erv4g2_rGnssP_U3fE49Qpz8OCROSir9d1gO4cri4D1xSb9TPhddEQlkonQwQbA-e-Mb3gNiKc54Y6bc1Zsaxu87hkTLR6xEKsCPAvvHJ74ctex0xB8HvT5hx4BIkbVM3dj6AtCX84AwreDzC57zjdCa4WTj05vp75XYMnDStYj_-yLmxkEdt2Nclm3]--></g></svg>